<svg width="78" height="78" viewBox="0 0 78 78" fill="none" xmlns="http://www.w3.org/2000/svg">
<circle cx="39" cy="39" r="39" fill="#A4A4A3"/>
<path d="M52.9029 37.8575L39.7117 26.4701C39.2206 26.0479 38.5 26.4288 38.5 27.1127V49.8921C38.5 50.576 39.2206 50.957 39.7117 50.5347L52.9029 39.1427C53.2839 38.8122 53.2839 38.188 52.9029 37.8575ZM38.2154 37.8575L25.0242 26.4701C24.5331 26.0479 23.8125 26.4288 23.8125 27.1127V49.8921C23.8125 50.576 24.5331 50.957 25.0242 50.5347L38.2154 39.1427C38.4036 38.9775 38.5 38.7388 38.5 38.5001C38.5 38.2614 38.4036 38.0228 38.2154 37.8575V37.8575Z" fill="white"/>
</svg>
