<svg width="24" height="28" viewBox="0 0 24 28" fill="none" xmlns="http://www.w3.org/2000/svg">
<path d="M24 21V23C24 23.2708 23.901 23.5052 23.7031 23.7031C23.5052 23.901 23.2708 24 23 24H1C0.729167 24 0.494792 23.901 0.296875 23.7031C0.0989583 23.5052 0 23.2708 0 23V21C0 20.7292 0.0989583 20.4948 0.296875 20.2969C0.494792 20.099 0.729167 20 1 20H23C23.2708 20 23.5052 20.099 23.7031 20.2969C23.901 20.4948 24 20.7292 24 21ZM24 13V15C24 15.2708 23.901 15.5052 23.7031 15.7031C23.5052 15.901 23.2708 16 23 16H1C0.729167 16 0.494792 15.901 0.296875 15.7031C0.0989583 15.5052 0 15.2708 0 15V13C0 12.7292 0.0989583 12.4948 0.296875 12.2969C0.494792 12.099 0.729167 12 1 12H23C23.2708 12 23.5052 12.099 23.7031 12.2969C23.901 12.4948 24 12.7292 24 13ZM24 5V7C24 7.27083 23.901 7.50521 23.7031 7.70312C23.5052 7.90104 23.2708 8 23 8H1C0.729167 8 0.494792 7.90104 0.296875 7.70312C0.0989583 7.50521 0 7.27083 0 7V5C0 4.72917 0.0989583 4.49479 0.296875 4.29688C0.494792 4.09896 0.729167 4 1 4H23C23.2708 4 23.5052 4.09896 23.7031 4.29688C23.901 4.49479 24 4.72917 24 5Z" fill="white"/>
</svg>
